{"title":"Welcome Back Mashup - Kiran Kamath - Full HD 1080p - Team truHD ","uid":12423891,"size":107937281,"categoryP":"video","categoryS":"music_videos","magnet":"?xt=urn:btih:d09ec281a61d65348c783af6ee6fa8c20f21afb7&amp;dn=Welcome+Back+Mashup+-+Kiran+Kamath+-+Full+HD+1080p+-+Team+truHD+&amp;tr=udp%3A%2F%2Ftracker.openbittorrent.com%3A80&amp;tr=udp%3A%2F%2Fopen.demonii.com%3A1337&amp;tr=udp%3A%2F%2Ftracker.coppersurfer.tk%3A6969&amp;tr=udp%3A%2F%2Fexodus.desync.com%3A6969","seeders":1,"leechers":0,"uploader":"Aainul","files":5,"time":1442345589,"description":"Welcome Back Mashup - Kiran Kamath - Full HD 1080p - Team truHD HEVC \n\n\n\nTeam truHD HEVC Presents \n\n\nSource: WEB-DL \n\nEncoder: truHD HEVC Encoding Team \n\nEncoded File Info: \n\nGeneral \n\nFormat                                   : MPEG-4 \nFormat profile                           : Base Media \nCodec ID                                 : iso4 \nFile size                                : 103 MiB \nDuration                                 : 3mn 7s \nOverall bit rate                         : 4 589 Kbps \nEncoded date                             : UTC 2015-09-14 14:34:16 \nTagged date                              : UTC 2015-09-14 14:34:16 \n\nVideo \nID                                       : 1 \nFormat                                   : HEVC \nFormat/Info                              : High Efficiency Video Coding \nCodec ID                                 : hvc1 \nCodec ID/Info                            : High Efficiency Video Coding \nDuration                                 : 3mn 7s \nBit rate                                 : 4 395 Kbps \nMaximum bit rate                         : 8 253 Kbps \nWidth                                    : 1 920 pixels \nHeight                                   : 1 080 pixels \nDisplay aspect ratio                     : 16:9 \nFrame rate mode                          : Constant \nFrame rate                               : 25.000 fps \nBits/(Pixel*Frame)                       : 0.085 \nStream size                              : 98.3 MiB (96%) \nTitle                                    : Video \nEncoded date                             : UTC 2015-09-14 14:34:16 \nTagged date                              : UTC 2015-09-14 14:34:28 \n\nAudio \nID                                       : 2 \nFormat                                   : AC-3 \nFormat/Info                              : Audio Coding 3 \nMode extension                           : CM (complete main) \nFormat settings, Endianness              : Big \nCodec ID                                 : ac-3 \nDuration                                 : 3mn 7s \nBit rate mode                            : Constant \nBit rate                                 : 192 Kbps \nMaximum bit rate                         : 201 Kbps \nChannel(s)                               : 6 channels \nChannel positions                        : Front: L C R, Side: L R, LFE \nSampling rate                            : 44.1 KHz \nBit depth                                : 16 bits \nCompression mode                         : Lossy \nStream size                              : 4.29 MiB (4%) \nTitle                                    : Team truHD truAudio \nEncoded date                             : UTC 2015-09-14 14:34:27 \nTagged date                              : UTC 2015-09-14 14:34:28 \n\n\nScreenShots: \n\n &lt;a href=&quot;\nhttp://i.imgur.com/bSonjGL.jpg&quot; rel=&quot;nofollow&quot; target=&quot;_NEW&quot;&gt;\nhttp://i.imgur.com/bSonjGL.jpg&lt;/a&gt;\n\nLike Us On FB And Request Accepted\n\nKickAssTorrents:        &lt;a href=&quot;\nhttps://kat.cr/user/Aainul/&quot; rel=&quot;nofollow&quot; target=&quot;_NEW&quot;&gt;\nhttps://kat.cr/user/Aainul/&lt;/a&gt;\nGloTorrents:        &lt;a href=&quot;\nhttps://glodls.to/user/Aainul&quot; rel=&quot;nofollow&quot; target=&quot;_NEW&quot;&gt;\nhttps://glodls.to/user/Aainul&lt;/a&gt;\nThePirateBay:        &lt;a href=&quot;\nhttps://thepiratebay.vg/user/Aainul/&quot; rel=&quot;nofollow&quot; target=&quot;_NEW&quot;&gt;\nhttps://thepiratebay.vg/user/Aainul/&lt;/a&gt;\n1337x Torrents:        &lt;a href=&quot;\nhttp://1337.to/user/Aainul/&quot; rel=&quot;nofollow&quot; target=&quot;_NEW&quot;&gt;\nhttp://1337.to/user/Aainul/&lt;/a&gt;\n\n\nNote: All Videos Uploaded By Me Are For Review Purpose. If You Like IT, Google IT And Buy IT - Thanks\n\n\nKing Regards\ntruHD HEVC Team\n\nShare Among Friends And Relatives","torrent":{"xt":"urn:btih:d09ec281a61d65348c783af6ee6fa8c20f21afb7","amp;dn":"Welcome+Back+Mashup+-+Kiran+Kamath+-+Full+HD+1080p+-+Team+truHD+","amp;tr":["udp%3A%2F%2Ftracker.openbittorrent.com%3A80","udp%3A%2F%2Fopen.demonii.com%3A1337","udp%3A%2F%2Ftracker.coppersurfer.tk%3A6969","udp%3A%2F%2Fexodus.desync.com%3A6969"],"infoHash":"d09ec281a61d65348c783af6ee6fa8c20f21afb7","infoHashBuffer":{"type":"Buffer","data":[208,158,194,129,166,29,101,52,140,120,58,246,238,111,168,194,15,33,175,183]},"announce":[],"urlList":[]}}